<?xml version="1.0" encoding="utf-8"?>
<!-- Generator: Adobe Illustrator 21.0.0, SVG Export Plug-In . SVG Version: 6.00 Build 0)  -->
<svg version="1.1" id="Layer_1" xmlns="http://www.w3.org/2000/svg" xmlns:xlink="http://www.w3.org/1999/xlink" x="0px" y="0px"
	 viewBox="0 0 82.2 90.7" style="enable-background:new 0 0 82.2 90.7;" xml:space="preserve">
<style type="text/css">
	.st0{fill:#0047BA;}
</style>
<g>
	<path class="st0" d="M47.8,0.8c9,2.4,15.2,8,18.7,16.6c0.8,1.9,1.1,4,1.6,6.1c0.1,0.3,0.2,0.7,0.5,0.9c1.1,0.9,1.6,2.2,1.6,3.6
		c0,2.7,0,5.4,0,8.2c0,2.4-1.5,4.1-3.8,4.4c-2,0.2-3.9-1.1-4.4-3c-0.2-0.6-0.2-1.3-0.3-2.2c-0.3,1.1-0.6,2-0.8,2.9
		c-1.8,5.5-4.5,10.3-9,14.1c-3.7,3.1-7.9,4.9-12.8,4.1c-4-0.6-7.2-2.6-10-5.4c-4.1-4.2-6.7-9.2-8.1-14.9c-0.1-0.2-0.1-0.4-0.3-0.7
		c0,2.3-0.7,4.1-3.1,5c0.6,1.4,1.1,2.9,1.8,4.2c1.9,3.7,4.6,6.8,8.1,9.1c0.4,0.2,0.9,0.4,1.3,0.3c2-0.1,3.5,0.6,4.6,2.3
		c1,1.7,0.1,3.5-1.9,3.6c-2.1,0.1-4.1-1.2-4.7-3.1c-0.1-0.3-0.4-0.6-0.7-0.8c-3.9-2.7-7-6.1-9.1-10.4c-0.7-1.5-1.2-3.1-1.8-4.6
		c-0.1-0.3-0.4-0.7-0.7-0.9c-1.2-0.8-2-1.8-2-3.2c-0.1-3.2,0-6.4,0-9.7c0-1.1,0.6-1.9,1.3-2.6c0.3-0.3,0.5-0.7,0.6-1.1
		c2-11.3,8.5-18.7,19.3-22.3C33.4,1.1,41.1-1.2,47.8,0.8z M20,25.4c0,0,0.1-0.2,0.1-0.3c0-0.2,0.1-0.4,0.1-0.6
		c1.1-6.5,4.4-11.4,10.4-14.2c5-2.4,10.3-2.8,15.7-1.7c8.1,1.7,13.5,6.4,15.5,14.6c0.2,0.8,0.3,1.5,0.4,2.1c1-0.7,2-1.4,3.1-2.1
		C63.4,10.7,51.9,1.7,38.8,2.8C26.2,3.9,18,14.2,17,23C18,23.8,19,24.6,20,25.4z"/>
	<path class="st0" d="M12.1,62.5c4-1.8,8-3.8,12-5.7c3.1,6.4,6.1,12.8,9.3,19.3c1.6-4.4,3.2-8.6,4.7-12.6c1.5,0,2.9,0.1,4.3,0
		c1.5-0.1,1.5-0.2,2,1.2c1.2,3.3,2.4,6.5,3.6,9.8c0.1,0.3,0.2,0.5,0.4,0.9c3-6.3,6-12.5,9.1-18.8c0.3,0.1,0.6,0.2,0.8,0.3
		c4.2,2,8.5,3.9,12.6,6c5.6,2.8,9.3,7.2,11,13.3c0.1,0.5,0.3,1,0.3,1.6c0,4.3,0,8.6,0,12.9c-27.4,0-54.8,0-82.1,0
		c0-4.6-0.2-9.2,0.1-13.8C0.1,76.9,0.1,68.2,12.1,62.5z"/>
</g>
</svg>
